<svg data-v-423bf9ae="" xmlns="http://www.w3.org/2000/svg" viewBox="0 0 426 90" class="iconLeftSlogan"><!----><!----><!----><g data-v-423bf9ae="" id="49c8379c-c1b1-47de-9237-9d5b9128e90b" fill="black" transform="matrix(4.347826026863623,0,0,4.347826026863623,105.0869555612293,-14.000000646148905)"><path d="M1.13 3.51L1.13 14.18L1.81 14.18L1.81 4.80L4.31 10.51L5.00 10.51L7.50 4.77L7.50 14.18L8.18 14.18L8.18 3.51L7.39 3.51L4.68 9.76L1.99 3.51ZM12.14 14.71C11.76 15.97 11.38 16.30 10.65 16.30C10.37 16.30 10.18 16.27 9.95 16.18L9.95 16.90C10.19 16.98 10.42 17.02 10.71 17.02C11.80 17.02 12.45 16.49 13.02 14.49L15.44 5.98L14.66 5.98L12.66 13.50L10.32 5.98L9.55 5.98L12.24 14.38ZM23.00 14.18L23.00 4.17L25.63 4.17L25.63 3.51L19.64 3.51L19.64 4.17L22.27 4.17L22.27 14.18ZM26.63 8.93C26.63 7 27.09 6.44 28.56 6.44C30.02 6.44 30.48 7 30.48 8.93L30.48 11.23C30.48 13.17 30.02 13.73 28.56 13.73C27.09 13.73 26.63 13.17 26.63 11.23ZM28.56 5.81C26.74 5.81 25.93 6.52 25.93 8.90L25.93 11.26C25.93 13.64 26.74 14.35 28.56 14.35C30.37 14.35 31.18 13.64 31.18 11.26L31.18 8.90C31.18 6.52 30.37 5.81 28.56 5.81ZM36.67 14.18L39.17 14.18C41.78 14.18 42.52 12.99 42.52 10.44L42.52 7.35C42.52 4.72 41.80 3.51 39.21 3.51L36.67 3.51ZM39.14 4.16C41.36 4.16 41.78 5.14 41.78 7.38L41.78 10.46C41.78 12.49 41.36 13.54 39.19 13.54L37.39 13.54L37.39 4.16ZM45.07 8.93C45.07 7 45.53 6.44 47.00 6.44C48.45 6.44 48.92 7 48.92 8.93L48.92 11.23C48.92 13.17 48.45 13.73 47.00 13.73C45.53 13.73 45.07 13.17 45.07 11.23ZM47.00 5.81C45.18 5.81 44.37 6.52 44.37 8.90L44.37 11.26C44.37 13.64 45.18 14.35 47.00 14.35C48.80 14.35 49.62 13.64 49.62 11.26L49.62 8.90C49.62 6.52 48.80 5.81 47.00 5.81ZM59.96 13.52L55.87 13.52L55.87 3.51L55.16 3.51L55.16 14.18L59.96 14.18ZM62.26 5.98L61.57 5.98L61.57 14.18L62.26 14.18ZM62.27 3.22L61.56 3.22L61.56 4.14L62.27 4.14ZM66.63 9.56C65.51 9.34 64.88 9.09 64.88 7.91C64.88 6.99 65.39 6.41 66.67 6.41C67.97 6.41 68.43 6.96 68.47 7.99L69.13 7.99C69.13 6.61 68.39 5.81 66.67 5.81C64.97 5.81 64.22 6.69 64.22 7.94C64.22 9.55 65.16 9.93 66.42 10.16C67.65 10.40 68.56 10.65 68.56 12.00C68.56 13.17 67.89 13.75 66.61 13.75C65.17 13.75 64.65 13.09 64.65 12.01L63.99 12.01C63.99 13.62 64.88 14.35 66.61 14.35C68.40 14.35 69.23 13.44 69.23 11.96C69.23 10.16 67.94 9.83 66.63 9.56ZM72.97 13.71C72.00 13.71 71.60 13.38 71.60 11.98L71.60 6.76L73.67 6.76L73.67 6.15L71.60 6.15L71.60 4.20L70.90 4.20L70.90 11.98C70.90 13.59 71.37 14.35 72.86 14.35C73.19 14.35 73.53 14.29 73.68 14.25L73.68 13.62C73.49 13.66 73.23 13.71 72.97 13.71Z"></path></g><!----><g data-v-423bf9ae="" id="fcaa57d5-198e-4ff8-8e09-cc16c3735144" transform="matrix(1.875,0,0,1.875,-2.3125,-2.3125)" stroke="none" fill="black"><style>.st0{fill:none;stroke:#000;stroke-width:2;stroke-miterlimit:10}</style><path class="st0" d="M25.5 6.7v19h14.8"></path><path class="st0" d="M49.2 21.7c.2 1.2.3 2.5.3 3.8 0 13.3-10.7 24-24 24s-24-10.7-24-24 10.7-24 24-24c9.3 0 17.4 5.3 21.4 13.1"></path><path class="st0" d="M49 4.4l-2.1 10.2-10.2-2.1"></path></g><!----><g data-v-423bf9ae="" id="e876339f-2154-419c-8ed8-f72a9c3cc591" fill="black" transform="matrix(0.5444750092763976,0,0,0.5444750092763976,109.94555232800568,58.421022197610306)"><path d="M0.10 3.51C0.10 3.75 0.21 3.77 0.38 3.77L0.88 3.77C0.97 3.77 3.11 10.99 3.14 11.07C3.49 12.14 3.60 12.99 3.91 12.99C4.13 12.99 4.23 12.67 4.51 12.26C4.66 12.05 4.76 12.01 4.90 11.66L6.89 6.45C6.96 6.29 6.99 6.20 7.01 6.20C7.04 6.20 7.07 6.29 7.11 6.45C7.71 8.51 8.39 11.03 8.40 11.07C8.75 12.14 8.86 12.99 9.17 12.99C9.39 12.99 9.49 12.67 9.77 12.26C9.93 12.05 10.02 12.01 10.16 11.66L13.26 4.06C13.36 3.81 13.36 3.77 13.72 3.77C13.96 3.77 14.01 3.71 14.01 3.53C14.01 3.32 13.97 3.26 13.78 3.26C13.64 3.26 13.33 3.30 12.82 3.30C12.08 3.30 11.58 3.26 11.38 3.26C11.20 3.26 11.10 3.28 11.10 3.51C11.10 3.75 11.21 3.77 11.38 3.77L12.29 3.77C12.36 3.77 12.38 3.81 12.38 3.95C12.38 4.63 10.78 8.72 10.07 10.63C9.93 10.99 9.86 11.17 9.81 11.17C9.76 11.17 9.70 10.99 9.58 10.60C9.49 10.30 8.57 7.18 8.04 5.22C7.99 5.05 7.78 4.17 7.78 3.85C7.78 3.81 7.78 3.79 7.80 3.77L8.68 3.77C8.86 3.77 8.96 3.75 8.96 3.56C8.96 3.32 8.92 3.26 8.72 3.26C8.40 3.26 7.46 3.30 7.04 3.30C6.62 3.30 5.71 3.26 5.49 3.26C5.31 3.26 5.21 3.28 5.21 3.51C5.21 3.75 5.32 3.77 5.49 3.77L6.29 3.77C6.33 3.77 6.51 4.27 6.66 4.83C6.72 5.05 6.76 5.15 6.76 5.25C6.76 5.31 6.76 5.38 6.72 5.49L4.72 10.60C4.62 10.82 4.59 10.95 4.55 10.95C4.51 10.95 4.48 10.84 4.40 10.60C4.31 10.32 3.30 7.27 2.70 5.22C2.66 5.08 2.34 3.96 2.32 3.85C2.34 3.77 2.38 3.77 2.42 3.77L3.12 3.77C3.35 3.77 3.42 3.75 3.42 3.56C3.42 3.32 3.37 3.26 3.18 3.26C2.86 3.26 2.14 3.30 1.72 3.30C1.30 3.30 0.60 3.26 0.38 3.26C0.20 3.26 0.10 3.28 0.10 3.51ZM21.63 12.39C21.63 12.63 21.63 12.68 21.83 12.68C22.15 12.68 23.09 12.64 23.51 12.64C23.93 12.64 24.75 12.68 25.07 12.68C25.24 12.68 25.24 12.61 25.24 12.40C25.24 12.24 25.24 12.18 25.07 12.18L24.15 12.18C24.07 12.18 24.02 9.93 24.02 8.20C24.02 8.01 24.02 8.01 24.15 8.01L29.39 8.01C29.46 8.01 29.47 8.01 29.47 8.18L29.47 9.91C29.47 11.05 29.46 12.18 29.40 12.18L28.63 12.18C28.41 12.18 28.36 12.19 28.36 12.39C28.36 12.63 28.38 12.68 28.57 12.68C28.90 12.68 29.74 12.64 30.16 12.64C30.58 12.64 31.16 12.68 31.49 12.68C31.65 12.68 31.67 12.61 31.67 12.40C31.67 12.24 31.65 12.18 31.49 12.18L30.74 12.18C30.70 12.18 30.69 9.27 30.69 7.04C30.69 5.40 30.69 3.70 30.73 3.70L31.35 3.70C31.57 3.70 31.61 3.68 31.61 3.49C31.61 3.25 31.60 3.19 31.40 3.19C31.26 3.19 30.63 3.23 30.04 3.23C29.37 3.23 28.77 3.19 28.55 3.19C28.35 3.19 28.32 3.22 28.32 3.44C28.32 3.67 28.39 3.70 28.56 3.70L29.36 3.70C29.41 3.70 29.47 4.79 29.47 5.71L29.47 7.42C29.47 7.59 29.47 7.59 29.30 7.59L24.19 7.59C24.02 7.59 24.02 7.59 24.02 7.38C24.02 6.96 24.01 6.23 24.01 5.53C24.01 4.66 24.02 3.70 24.08 3.70L24.85 3.70C25.07 3.70 25.12 3.68 25.12 3.49C25.12 3.25 25.10 3.19 24.91 3.19C24.58 3.19 24.00 3.23 23.39 3.23C22.81 3.23 22.32 3.19 22.09 3.19C21.91 3.19 21.81 3.21 21.81 3.44C21.81 3.68 21.92 3.70 22.09 3.70L22.71 3.70C22.76 3.70 22.78 5.59 22.78 7.18L22.78 8.61C22.78 10.08 22.76 12.18 22.69 12.18L21.88 12.18C21.66 12.18 21.63 12.19 21.63 12.39ZM39.70 12.39C39.70 12.63 39.73 12.68 39.93 12.68C40.25 12.68 41.22 12.64 41.64 12.64C42.06 12.64 46.56 12.68 46.89 12.68C47.01 12.68 47.17 12.66 47.17 12.49C47.17 12.07 47.21 11.23 47.21 10.53C47.21 10.39 47.05 10.39 46.93 10.39C46.82 10.39 46.69 10.39 46.69 10.51C46.68 11.06 46.68 11.41 46.65 11.76C46.62 12.01 46.62 12.04 46.52 12.04C46.37 12.04 43.74 12.08 42.24 12.08C42.17 12.08 42.13 10.11 42.08 8.26C42.08 8.06 42.13 8.09 42.27 8.09L44.55 8.09C45.25 8.09 45.28 8.20 45.28 8.30L45.28 9.00C45.28 9.14 45.46 9.14 45.57 9.14C45.67 9.14 45.79 9.13 45.79 9.02C45.79 8.83 45.77 8.33 45.77 7.83C45.77 7.32 45.79 6.83 45.79 6.71C45.79 6.59 45.65 6.58 45.56 6.58C45.44 6.58 45.28 6.59 45.28 6.72L45.28 7.45C45.28 7.62 44.83 7.63 44.55 7.63L42.21 7.63C42.10 7.63 42.08 7.63 42.08 7.45C42.07 6.75 42.06 6.06 42.06 5.46C42.06 5.12 42.06 3.71 42.14 3.71C43.37 3.71 45.88 3.75 45.88 3.81C45.88 3.99 45.84 4.83 45.84 4.89C45.84 5.04 45.91 5.10 46.09 5.10C46.28 5.10 46.35 5.08 46.35 4.94C46.35 3.85 46.41 3.36 46.41 3.09C46.41 2.91 46.33 2.90 46.13 2.90C45.93 2.90 45.93 2.95 45.91 3.11C45.89 3.25 45.96 3.25 45.05 3.25C44.44 3.25 42.29 3.29 41.52 3.29C41.03 3.29 40.10 3.25 40.00 3.25C39.87 3.25 39.82 3.30 39.82 3.49C39.82 3.72 39.89 3.74 40.05 3.74L40.71 3.74C40.77 3.74 40.84 4.79 40.84 5.71C40.84 5.80 40.89 8.27 40.89 9.83L40.89 11.17C40.89 11.84 40.87 12.18 40.84 12.18L39.98 12.18C39.76 12.18 39.70 12.21 39.70 12.39ZM55.17 12.39C55.17 12.63 55.19 12.68 55.38 12.68C55.57 12.68 55.94 12.64 56.56 12.64C57.19 12.64 57.75 12.68 58.07 12.68C58.24 12.68 58.24 12.61 58.24 12.40C58.24 12.24 58.24 12.18 58.07 12.18L56.87 12.18C56.83 12.18 56.81 11.54 56.81 10.79C56.81 9.46 56.83 7.48 56.83 5.99C56.83 5.25 56.83 4.84 56.84 4.28C56.84 4.02 56.91 4.14 57.04 4.28L63.92 12.66C64.01 12.75 64.09 12.89 64.20 12.89C64.32 12.89 64.39 12.77 64.39 12.54C64.39 12.39 64.55 6.65 64.57 4.48C64.57 4.06 64.60 3.70 64.62 3.70L65.25 3.70C65.48 3.70 65.53 3.68 65.53 3.49C65.53 3.25 65.53 3.19 65.34 3.19C65.14 3.19 64.71 3.23 64.15 3.23C63.53 3.23 62.73 3.19 62.64 3.19C62.47 3.19 62.47 3.26 62.47 3.47C62.47 3.64 62.47 3.70 62.64 3.70L63.94 3.70C63.95 3.70 63.95 4.33 63.95 4.44C63.95 5.85 63.98 8.33 63.98 9.70L63.98 10.29C63.98 10.57 63.97 10.65 63.74 10.37L58.06 3.39C57.95 3.25 57.92 3.19 57.75 3.19C57.67 3.19 57.29 3.23 56.98 3.23C56.69 3.23 55.61 3.19 55.41 3.19C55.24 3.19 55.22 3.26 55.22 3.47C55.22 3.64 55.24 3.70 55.41 3.70L56.32 3.70C56.32 4.17 56.28 8.53 56.21 10.79C56.18 11.69 56.20 12.18 56.08 12.18L55.44 12.18C55.22 12.18 55.17 12.19 55.17 12.39ZM83.30 12.39C83.30 12.63 83.33 12.68 83.52 12.68C83.76 12.68 84.27 12.64 84.69 12.64C85.11 12.64 85.60 12.68 85.92 12.68C86.09 12.68 86.11 12.61 86.11 12.40C86.11 12.24 86.09 12.18 85.92 12.18L84.95 12.18C84.90 12.18 84.88 11.54 84.88 10.79C84.88 8.96 84.92 6.13 84.99 4.28C85.02 3.88 85.05 3.91 85.19 4.27L88.45 12.32C88.55 12.54 88.62 12.74 88.73 12.74C88.83 12.74 88.90 12.63 88.98 12.45C89.32 11.79 89.50 11.75 89.77 11.09L92.36 4.47C92.48 4.16 92.53 4.02 92.54 4.47C92.57 5.66 92.61 8.47 92.61 9.74C92.61 10.99 92.57 12.18 92.51 12.18L91.88 12.18C91.66 12.18 91.59 12.19 91.59 12.39C91.59 12.63 91.62 12.68 91.81 12.68C92.01 12.68 92.71 12.64 93.31 12.64C93.73 12.64 94.49 12.68 94.81 12.68C94.98 12.68 95.00 12.61 95.00 12.40C95.00 12.22 94.95 12.18 94.78 12.18L94.05 12.18C93.94 12.18 93.84 8.44 93.84 6.03L93.84 4.77C93.84 4.17 93.87 3.77 93.91 3.70L94.57 3.70C94.79 3.70 94.84 3.68 94.84 3.49C94.84 3.25 94.82 3.19 94.63 3.19C94.30 3.19 93.62 3.23 93.20 3.23L92.53 3.23C92.30 3.23 92.27 3.29 92.16 3.58L89.42 10.72C89.33 10.95 89.31 11.02 89.19 10.74L86.25 3.40C86.18 3.22 86.13 3.19 85.99 3.19C85.90 3.19 85.41 3.23 85.11 3.23C84.60 3.23 83.75 3.19 83.55 3.19C83.41 3.19 83.41 3.26 83.41 3.47C83.41 3.64 83.41 3.70 83.55 3.70L84.25 3.70C84.52 3.70 84.52 3.72 84.52 3.84C84.52 4.82 84.31 9.94 84.27 10.79C84.22 11.55 84.22 12.18 84.17 12.18L83.59 12.18C83.37 12.18 83.30 12.19 83.30 12.39ZM102.90 12.39C102.90 12.63 102.93 12.68 103.12 12.68C103.45 12.68 104.41 12.64 104.83 12.64C105.25 12.64 109.76 12.68 110.08 12.68C110.21 12.68 110.36 12.66 110.36 12.49C110.36 12.07 110.40 11.23 110.40 10.53C110.40 10.39 110.25 10.39 110.12 10.39C110.01 10.39 109.89 10.39 109.89 10.51C109.87 11.06 109.87 11.41 109.84 11.76C109.82 12.01 109.82 12.04 109.72 12.04C109.56 12.04 106.93 12.08 105.43 12.08C105.36 12.08 105.32 10.11 105.28 8.26C105.28 8.06 105.32 8.09 105.46 8.09L107.74 8.09C108.44 8.09 108.47 8.20 108.47 8.30L108.47 9.00C108.47 9.14 108.65 9.14 108.77 9.14C108.86 9.14 108.99 9.13 108.99 9.02C108.99 8.83 108.96 8.33 108.96 7.83C108.96 7.32 108.99 6.83 108.99 6.71C108.99 6.59 108.85 6.58 108.75 6.58C108.64 6.58 108.47 6.59 108.47 6.72L108.47 7.45C108.47 7.62 108.02 7.63 107.74 7.63L105.41 7.63C105.29 7.63 105.28 7.63 105.28 7.45C105.27 6.75 105.25 6.06 105.25 5.46C105.25 5.12 105.25 3.71 105.34 3.71C106.57 3.71 109.07 3.75 109.07 3.81C109.07 3.99 109.03 4.83 109.03 4.89C109.03 5.04 109.10 5.10 109.28 5.10C109.48 5.10 109.55 5.08 109.55 4.94C109.55 3.85 109.61 3.36 109.61 3.09C109.61 2.91 109.52 2.90 109.33 2.90C109.13 2.90 109.13 2.95 109.10 3.11C109.09 3.25 109.16 3.25 108.25 3.25C107.63 3.25 105.49 3.29 104.72 3.29C104.23 3.29 103.29 3.25 103.19 3.25C103.07 3.25 103.01 3.30 103.01 3.49C103.01 3.72 103.08 3.74 103.25 3.74L103.91 3.74C103.96 3.74 104.03 4.79 104.03 5.71C104.03 5.80 104.09 8.27 104.09 9.83L104.09 11.17C104.09 11.84 104.06 12.18 104.03 12.18L103.18 12.18C102.96 12.18 102.90 12.21 102.90 12.39ZM118.30 12.39C118.30 12.63 118.33 12.68 118.52 12.68C118.76 12.68 119.27 12.64 119.69 12.64C120.11 12.64 120.60 12.68 120.92 12.68C121.09 12.68 121.11 12.61 121.11 12.40C121.11 12.24 121.09 12.18 120.92 12.18L119.95 12.18C119.90 12.18 119.88 11.54 119.88 10.79C119.88 8.96 119.92 6.13 119.99 4.28C120.02 3.88 120.05 3.91 120.19 4.27L123.45 12.32C123.55 12.54 123.62 12.74 123.73 12.74C123.83 12.74 123.90 12.63 123.98 12.45C124.32 11.79 124.50 11.75 124.77 11.09L127.36 4.47C127.48 4.16 127.53 4.02 127.54 4.47C127.57 5.66 127.61 8.47 127.61 9.74C127.61 10.99 127.57 12.18 127.51 12.18L126.88 12.18C126.66 12.18 126.59 12.19 126.59 12.39C126.59 12.63 126.62 12.68 126.81 12.68C127.01 12.68 127.71 12.64 128.31 12.64C128.73 12.64 129.49 12.68 129.81 12.68C129.98 12.68 130.00 12.61 130.00 12.40C130.00 12.22 129.95 12.18 129.78 12.18L129.05 12.18C128.94 12.18 128.84 8.44 128.84 6.03L128.84 4.77C128.84 4.17 128.87 3.77 128.91 3.70L129.57 3.70C129.79 3.70 129.84 3.68 129.84 3.49C129.84 3.25 129.82 3.19 129.63 3.19C129.30 3.19 128.62 3.23 128.20 3.23L127.53 3.23C127.30 3.23 127.27 3.29 127.16 3.58L124.42 10.72C124.33 10.95 124.31 11.02 124.19 10.74L121.25 3.40C121.18 3.22 121.13 3.19 120.99 3.19C120.90 3.19 120.41 3.23 120.11 3.23C119.60 3.23 118.75 3.19 118.55 3.19C118.41 3.19 118.41 3.26 118.41 3.47C118.41 3.64 118.41 3.70 118.55 3.70L119.25 3.70C119.52 3.70 119.52 3.72 119.52 3.84C119.52 4.82 119.31 9.94 119.27 10.79C119.22 11.55 119.22 12.18 119.17 12.18L118.59 12.18C118.37 12.18 118.30 12.19 118.30 12.39ZM137.97 8.15C137.97 11.17 140.31 12.80 142.56 12.80C145.35 12.80 147.32 10.89 147.32 8.06C147.32 5.33 145.57 3.11 142.77 3.11C140.17 3.11 137.97 5.10 137.97 8.15ZM139.37 7.77C139.37 5.64 140.66 3.58 142.63 3.58C144.87 3.58 145.95 5.81 145.95 7.94C145.95 10.08 144.84 12.32 142.58 12.32C140.59 12.32 139.37 10.28 139.37 7.77ZM155.43 3.51C155.43 3.72 155.50 3.79 155.69 3.79L156.51 3.77C156.60 3.77 156.65 6.61 156.65 8.55L156.65 10.42C156.65 11.30 156.63 12.18 156.59 12.18L155.99 12.18C155.76 12.18 155.69 12.19 155.69 12.39C155.69 12.63 155.74 12.68 155.93 12.68C156.06 12.68 156.88 12.64 157.30 12.64C157.72 12.64 158.49 12.68 158.82 12.68C158.98 12.68 159.01 12.61 159.01 12.40C159.01 12.24 158.98 12.18 158.82 12.18L158.00 12.18C157.93 12.18 157.85 9.18 157.85 8.37C157.85 8.30 157.85 8.26 157.96 8.26C158.35 8.26 158.96 8.27 159.25 8.27C161.49 8.32 161.63 10.00 161.63 11.68L161.63 12.49C161.63 12.61 161.69 12.64 161.78 12.64C161.78 12.64 163.23 12.68 163.70 12.68C163.87 12.68 163.93 12.64 163.93 12.53C163.93 12.24 163.87 12.18 163.72 12.18L163.07 12.18C162.97 12.18 162.95 12.14 162.92 11.31C162.83 8.99 161.46 8.34 160.55 8.05C160.41 8.01 160.44 8.01 160.55 7.95C161.14 7.69 162.46 6.94 162.46 5.63C162.46 3.63 160.76 3.21 159.36 3.21C159.04 3.21 157.75 3.29 157.33 3.29C156.91 3.29 155.93 3.26 155.71 3.26C155.53 3.26 155.43 3.28 155.43 3.51ZM157.85 7.80L157.85 4.40C157.85 4.05 157.88 3.68 157.92 3.68C158.13 3.65 158.41 3.65 158.63 3.65C159.94 3.65 161.18 4.47 161.18 5.82C161.18 6.99 160.64 7.57 159.98 7.88C159.94 7.90 159.89 7.90 159.82 7.90C159.35 7.88 158.63 7.88 158.03 7.87C157.86 7.87 157.85 7.85 157.85 7.80ZM170.56 3.44C170.56 3.68 170.65 3.70 170.81 3.70L171.22 3.70C171.35 3.70 173.60 7.74 174.01 8.50C174.06 8.60 174.10 8.65 174.10 8.81C174.10 10.50 174.09 12.18 173.96 12.18L173.25 12.18C173.03 12.18 172.98 12.19 172.98 12.39C172.98 12.63 173.00 12.68 173.19 12.68C173.39 12.68 174.20 12.64 174.79 12.64C175.62 12.64 176.15 12.68 176.47 12.68C176.64 12.68 176.67 12.61 176.67 12.40C176.67 12.24 176.64 12.18 176.47 12.18L175.50 12.18C175.41 12.18 175.38 9.72 175.38 8.22C175.38 8.18 175.38 8.15 175.42 8.09C175.97 7.22 177.91 3.70 177.98 3.70L178.46 3.70C178.63 3.70 178.72 3.68 178.72 3.44C178.72 3.22 178.64 3.19 178.46 3.19C178.23 3.19 178.00 3.23 177.39 3.23C176.81 3.23 176.47 3.19 176.30 3.19C176.11 3.19 176.06 3.25 176.06 3.49C176.06 3.68 176.13 3.70 176.36 3.70L177.09 3.70C177.10 3.70 177.11 3.71 177.11 3.74C177.11 4.05 175.55 6.99 175.17 7.71C175.06 7.92 175.06 7.88 174.94 7.67C174.54 6.89 173.25 4.56 172.96 3.85C172.90 3.71 172.89 3.70 173.07 3.70L173.89 3.70C174.12 3.70 174.15 3.68 174.15 3.49C174.15 3.25 174.10 3.19 173.95 3.19C173.71 3.19 173.10 3.23 172.30 3.23C171.49 3.23 171.00 3.19 170.81 3.19C170.63 3.19 170.56 3.21 170.56 3.44ZM196 12.39C196 12.63 196.04 12.68 196.24 12.68C196.56 12.68 197.32 12.64 198.03 12.64C198.69 12.64 199.49 12.68 199.71 12.68C199.88 12.68 199.91 12.61 199.91 12.40C199.91 12.24 199.88 12.18 199.71 12.18L198.74 12.18C198.65 12.18 198.62 9.55 198.62 7.76L198.62 5.87C198.62 5.14 198.65 3.70 198.74 3.70L199.65 3.70C199.88 3.70 199.91 3.68 199.91 3.49C199.91 3.25 199.88 3.19 199.71 3.19C199.39 3.19 198.72 3.23 198.06 3.23C197.25 3.23 196.53 3.19 196.31 3.19C196.13 3.19 196.06 3.21 196.06 3.44C196.06 3.68 196.14 3.70 196.31 3.70L197.23 3.70C197.27 3.70 197.34 4.79 197.34 5.71L197.34 7.08C197.34 8.92 197.33 12.18 197.22 12.18L196.29 12.18C196.07 12.18 196 12.19 196 12.39ZM208.01 5.77C208.01 9.07 213.00 8.20 213.00 10.65C213.00 11.59 212.16 12.31 211.18 12.31C210.35 12.31 208.75 11.83 208.73 11.47L208.64 10.15C208.63 9.97 208.56 9.91 208.38 9.91L208.31 9.91C208.10 9.91 208.10 10.00 208.10 10.12C208.10 10.32 208.21 11.66 208.24 12.17C208.25 12.38 209.51 12.85 211.05 12.85C212.62 12.85 214.23 11.87 214.23 10.11C214.23 6.79 209.26 7.87 209.26 5.32C209.26 4.31 210.04 3.56 211.08 3.56C212.10 3.56 213.19 4.58 213.19 4.89C213.19 5.01 213.15 5.73 213.15 5.78C213.15 5.92 213.19 5.99 213.46 5.99C213.70 5.99 213.71 5.94 213.71 5.75C213.71 5.04 213.79 3.68 213.79 3.53C213.79 3.30 213.75 3.29 213.49 3.29C213.26 3.29 213.25 3.32 213.23 3.53C213.23 3.61 213.22 3.78 213.18 3.78C213.12 3.78 213.04 3.74 212.97 3.68C212.17 3.14 211.55 3.08 211.05 3.08C209.52 3.08 208.01 4.17 208.01 5.77ZM231.99 12.39C231.99 12.63 232.01 12.68 232.20 12.68C232.39 12.68 232.76 12.64 233.38 12.64C234.01 12.64 234.57 12.68 234.89 12.68C235.06 12.68 235.06 12.61 235.06 12.40C235.06 12.24 235.06 12.18 234.89 12.18L233.69 12.18C233.65 12.18 233.63 11.54 233.63 10.79C233.63 9.46 233.65 7.48 233.65 5.99C233.65 5.25 233.65 4.84 233.66 4.28C233.66 4.02 233.73 4.14 233.86 4.28L240.74 12.66C240.83 12.75 240.91 12.89 241.02 12.89C241.14 12.89 241.21 12.77 241.21 12.54C241.21 12.39 241.37 6.65 241.39 4.48C241.39 4.06 241.42 3.70 241.44 3.70L242.07 3.70C242.30 3.70 242.35 3.68 242.35 3.49C242.35 3.25 242.35 3.19 242.16 3.19C241.96 3.19 241.53 3.23 240.97 3.23C240.35 3.23 239.55 3.19 239.46 3.19C239.29 3.19 239.29 3.26 239.29 3.47C239.29 3.64 239.29 3.70 239.46 3.70L240.76 3.70C240.77 3.70 240.77 4.33 240.77 4.44C240.77 5.85 240.80 8.33 240.80 9.70L240.80 10.29C240.80 10.57 240.79 10.65 240.56 10.37L234.88 3.39C234.77 3.25 234.74 3.19 234.57 3.19C234.49 3.19 234.11 3.23 233.80 3.23C233.51 3.23 232.43 3.19 232.23 3.19C232.06 3.19 232.04 3.26 232.04 3.47C232.04 3.64 232.06 3.70 232.23 3.70L233.14 3.70C233.14 4.17 233.10 8.53 233.03 10.79C233.00 11.69 233.02 12.18 232.90 12.18L232.26 12.18C232.04 12.18 231.99 12.19 231.99 12.39ZM250.46 8.15C250.46 11.17 252.80 12.80 255.05 12.80C257.84 12.80 259.81 10.89 259.81 8.06C259.81 5.33 258.06 3.11 255.26 3.11C252.66 3.11 250.46 5.10 250.46 8.15ZM251.86 7.77C251.86 5.64 253.15 3.58 255.12 3.58C257.36 3.58 258.44 5.81 258.44 7.94C258.44 10.08 257.33 12.32 255.07 12.32C253.08 12.32 251.86 10.28 251.86 7.77ZM267.09 5.01C267.09 5.17 267.27 5.17 267.40 5.17C267.55 5.17 267.60 5.15 267.61 4.97L267.72 3.89C267.74 3.81 268.28 3.75 269.04 3.75L271.03 3.75C271.08 3.75 271.11 4.35 271.11 4.97C271.11 6.43 271.05 12.18 270.93 12.18L270.06 12.18C269.84 12.18 269.79 12.19 269.79 12.39C269.79 12.63 269.81 12.68 270.00 12.68C270.33 12.68 271.31 12.64 271.73 12.64C272.15 12.64 273.08 12.68 273.41 12.68C273.57 12.68 273.60 12.61 273.60 12.40C273.60 12.24 273.57 12.18 273.41 12.18L272.41 12.18C272.38 12.18 272.38 11.76 272.38 11.31C272.38 9.56 272.47 5.96 272.47 5.92C272.48 5.18 272.48 3.75 272.58 3.75L274.19 3.75C274.90 3.75 275.73 3.78 275.73 3.85C275.73 3.99 275.69 4.90 275.69 4.97C275.69 5.12 275.76 5.17 275.94 5.17C276.14 5.17 276.21 5.17 276.21 5.03C276.21 3.93 276.26 3.40 276.26 3.14C276.26 2.94 276.18 2.94 275.98 2.94C275.83 2.94 275.77 2.98 275.76 3.16C275.76 3.23 275.11 3.28 274.27 3.28L269.28 3.28C268.62 3.28 267.81 3.28 267.81 3.21L267.81 3.07C267.81 2.94 267.68 2.94 267.58 2.94C267.36 2.94 267.33 3.00 267.32 3.19C267.26 3.89 267.09 4.97 267.09 5.01ZM293.40 3.44C293.40 3.68 293.48 3.70 293.65 3.70L294.06 3.70C294.18 3.70 296.44 7.74 296.84 8.50C296.90 8.60 296.94 8.65 296.94 8.81C296.94 10.50 296.93 12.18 296.80 12.18L296.09 12.18C295.86 12.18 295.82 12.19 295.82 12.39C295.82 12.63 295.83 12.68 296.03 12.68C296.23 12.68 297.04 12.64 297.63 12.64C298.45 12.64 298.98 12.68 299.31 12.68C299.47 12.68 299.50 12.61 299.50 12.40C299.50 12.24 299.47 12.18 299.31 12.18L298.34 12.18C298.24 12.18 298.21 9.72 298.21 8.22C298.21 8.18 298.21 8.15 298.26 8.09C298.80 7.22 300.75 3.70 300.82 3.70L301.29 3.70C301.46 3.70 301.56 3.68 301.56 3.44C301.56 3.22 301.48 3.19 301.29 3.19C301.07 3.19 300.83 3.23 300.23 3.23C299.64 3.23 299.31 3.19 299.14 3.19C298.94 3.19 298.90 3.25 298.90 3.49C298.90 3.68 298.97 3.70 299.19 3.70L299.92 3.70C299.94 3.70 299.95 3.71 299.95 3.74C299.95 4.05 298.38 6.99 298.00 7.71C297.89 7.92 297.89 7.88 297.78 7.67C297.37 6.89 296.09 4.56 295.79 3.85C295.74 3.71 295.72 3.70 295.90 3.70L296.73 3.70C296.95 3.70 296.98 3.68 296.98 3.49C296.98 3.25 296.94 3.19 296.79 3.19C296.55 3.19 295.93 3.23 295.13 3.23C294.32 3.23 293.83 3.19 293.65 3.19C293.47 3.19 293.40 3.21 293.40 3.44ZM308.69 8.15C308.69 11.17 311.02 12.80 313.28 12.80C316.06 12.80 318.04 10.89 318.04 8.06C318.04 5.33 316.29 3.11 313.49 3.11C310.88 3.11 308.69 5.10 308.69 8.15ZM310.09 7.77C310.09 5.64 311.37 3.58 313.35 3.58C315.59 3.58 316.67 5.81 316.67 7.94C316.67 10.08 315.56 12.32 313.29 12.32C311.30 12.32 310.09 10.28 310.09 7.77ZM326.14 3.51C326.14 3.75 326.23 3.77 326.40 3.77L326.93 3.77C326.98 3.77 326.98 4.12 326.98 4.55C326.98 5.66 326.97 8.96 326.97 9.42C326.97 11.13 327.22 12.80 330.08 12.80C331.16 12.80 332.32 12.38 332.98 12.00C333.23 11.86 333.52 11.72 333.61 11.72C333.87 11.72 334.14 12.74 334.47 12.74C334.80 12.74 334.81 12.35 334.81 12.25C334.81 11.96 334.87 10.08 334.91 8.16C334.96 6.12 334.95 3.77 335.06 3.77L335.38 3.77C335.61 3.77 335.68 3.75 335.68 3.56C335.68 3.32 335.64 3.26 335.44 3.26C335.30 3.26 334.77 3.30 334.35 3.30C333.93 3.30 333.13 3.26 332.91 3.26C332.72 3.26 332.63 3.28 332.63 3.51C332.63 3.75 332.74 3.77 332.91 3.77L333.61 3.77C333.68 3.77 333.69 4.30 333.69 4.87L333.69 9.14C333.69 11.19 333.69 11.12 333.35 11.34C332.96 11.61 332.15 12.08 330.97 12.08C329.00 12.08 328.20 11.17 328.20 9.41C328.20 8.82 328.27 3.77 328.38 3.77L329.29 3.77C329.52 3.77 329.56 3.75 329.56 3.56C329.56 3.32 329.55 3.26 329.35 3.26C329.03 3.26 328.15 3.30 327.73 3.30C327.31 3.30 326.62 3.26 326.40 3.26C326.21 3.26 326.14 3.28 326.14 3.51ZM343.71 3.51C343.71 3.72 343.78 3.79 343.98 3.79L344.79 3.77C344.89 3.77 344.93 6.61 344.93 8.55L344.93 10.42C344.93 11.30 344.92 12.18 344.88 12.18L344.27 12.18C344.05 12.18 343.98 12.19 343.98 12.39C343.98 12.63 344.02 12.68 344.22 12.68C344.34 12.68 345.17 12.64 345.59 12.64C346.01 12.64 346.78 12.68 347.10 12.68C347.27 12.68 347.30 12.61 347.30 12.40C347.30 12.24 347.27 12.18 347.10 12.18L346.29 12.18C346.22 12.18 346.14 9.18 346.14 8.37C346.14 8.30 346.14 8.26 346.25 8.26C346.64 8.26 347.24 8.27 347.54 8.27C349.78 8.32 349.92 10.00 349.92 11.68L349.92 12.49C349.92 12.61 349.97 12.64 350.07 12.64C350.07 12.64 351.51 12.68 351.99 12.68C352.16 12.68 352.21 12.64 352.21 12.53C352.21 12.24 352.16 12.18 352.00 12.18L351.36 12.18C351.26 12.18 351.23 12.14 351.20 11.31C351.12 8.99 349.75 8.34 348.84 8.05C348.70 8.01 348.73 8.01 348.84 7.95C349.43 7.69 350.74 6.94 350.74 5.63C350.74 3.63 349.05 3.21 347.65 3.21C347.33 3.21 346.04 3.29 345.62 3.29C345.20 3.29 344.22 3.26 343.99 3.26C343.81 3.26 343.71 3.28 343.71 3.51ZM346.14 7.80L346.14 4.40C346.14 4.05 346.16 3.68 346.21 3.68C346.42 3.65 346.70 3.65 346.92 3.65C348.22 3.65 349.47 4.47 349.47 5.82C349.47 6.99 348.92 7.57 348.26 7.88C348.22 7.90 348.18 7.90 348.11 7.90C347.63 7.88 346.92 7.88 346.32 7.87C346.15 7.87 346.14 7.85 346.14 7.80ZM369.22 5.01C369.22 5.17 369.40 5.17 369.53 5.17C369.68 5.17 369.73 5.15 369.74 4.97L369.85 3.89C369.87 3.81 370.41 3.75 371.17 3.75L373.16 3.75C373.21 3.75 373.24 4.35 373.24 4.97C373.24 6.43 373.18 12.18 373.06 12.18L372.19 12.18C371.97 12.18 371.92 12.19 371.92 12.39C371.92 12.63 371.94 12.68 372.13 12.68C372.46 12.68 373.44 12.64 373.86 12.64C374.28 12.64 375.21 12.68 375.54 12.68C375.70 12.68 375.73 12.61 375.73 12.40C375.73 12.24 375.70 12.18 375.54 12.18L374.54 12.18C374.51 12.18 374.51 11.76 374.51 11.31C374.51 9.56 374.60 5.96 374.60 5.92C374.61 5.18 374.61 3.75 374.71 3.75L376.32 3.75C377.03 3.75 377.86 3.78 377.86 3.85C377.86 3.99 377.82 4.90 377.82 4.97C377.82 5.12 377.89 5.17 378.07 5.17C378.27 5.17 378.34 5.17 378.34 5.03C378.34 3.93 378.39 3.40 378.39 3.14C378.39 2.94 378.31 2.94 378.11 2.94C377.96 2.94 377.90 2.98 377.89 3.16C377.89 3.23 377.24 3.28 376.40 3.28L371.41 3.28C370.75 3.28 369.94 3.28 369.94 3.21L369.94 3.07C369.94 2.94 369.81 2.94 369.71 2.94C369.49 2.94 369.46 3.00 369.45 3.19C369.39 3.89 369.22 4.97 369.22 5.01ZM386.15 12.39C386.15 12.63 386.15 12.68 386.34 12.68C386.67 12.68 387.60 12.64 388.02 12.64C388.44 12.64 389.27 12.68 389.59 12.68C389.76 12.68 389.76 12.61 389.76 12.40C389.76 12.24 389.76 12.18 389.59 12.18L388.67 12.18C388.58 12.18 388.54 9.93 388.54 8.20C388.54 8.01 388.54 8.01 388.67 8.01L393.90 8.01C393.97 8.01 393.99 8.01 393.99 8.18L393.99 9.91C393.99 11.05 393.97 12.18 393.92 12.18L393.15 12.18C392.92 12.18 392.88 12.19 392.88 12.39C392.88 12.63 392.90 12.68 393.09 12.68C393.41 12.68 394.25 12.64 394.67 12.64C395.09 12.64 395.68 12.68 396.00 12.68C396.17 12.68 396.19 12.61 396.19 12.40C396.19 12.24 396.17 12.18 396.00 12.18L395.26 12.18C395.22 12.18 395.21 9.27 395.21 7.04C395.21 5.40 395.21 3.70 395.25 3.70L395.86 3.70C396.09 3.70 396.13 3.68 396.13 3.49C396.13 3.25 396.12 3.19 395.92 3.19C395.78 3.19 395.15 3.23 394.56 3.23C393.89 3.23 393.29 3.19 393.06 3.19C392.87 3.19 392.84 3.22 392.84 3.44C392.84 3.67 392.91 3.70 393.08 3.70L393.88 3.70C393.93 3.70 393.99 4.79 393.99 5.71L393.99 7.42C393.99 7.59 393.99 7.59 393.82 7.59L388.71 7.59C388.54 7.59 388.54 7.59 388.54 7.38C388.54 6.96 388.53 6.23 388.53 5.53C388.53 4.66 388.54 3.70 388.60 3.70L389.37 3.70C389.59 3.70 389.63 3.68 389.63 3.49C389.63 3.25 389.62 3.19 389.42 3.19C389.10 3.19 388.51 3.23 387.91 3.23C387.32 3.23 386.83 3.19 386.61 3.19C386.43 3.19 386.33 3.21 386.33 3.44C386.33 3.68 386.44 3.70 386.61 3.70L387.23 3.70C387.28 3.70 387.30 5.59 387.30 7.18L387.30 8.61C387.30 10.08 387.28 12.18 387.21 12.18L386.40 12.18C386.18 12.18 386.15 12.19 386.15 12.39ZM404.08 12.39C404.08 12.63 404.12 12.68 404.32 12.68C404.64 12.68 405.40 12.64 406.11 12.64C406.77 12.64 407.57 12.68 407.79 12.68C407.96 12.68 407.99 12.61 407.99 12.40C407.99 12.24 407.96 12.18 407.79 12.18L406.83 12.18C406.73 12.18 406.70 9.55 406.70 7.76L406.70 5.87C406.70 5.14 406.73 3.70 406.83 3.70L407.74 3.70C407.96 3.70 407.99 3.68 407.99 3.49C407.99 3.25 407.96 3.19 407.79 3.19C407.47 3.19 406.80 3.23 406.14 3.23C405.33 3.23 404.61 3.19 404.39 3.19C404.21 3.19 404.14 3.21 404.14 3.44C404.14 3.68 404.22 3.70 404.39 3.70L405.31 3.70C405.36 3.70 405.43 4.79 405.43 5.71L405.43 7.08C405.43 8.92 405.41 12.18 405.30 12.18L404.38 12.18C404.15 12.18 404.08 12.19 404.08 12.39ZM415.88 12.39C415.88 12.63 415.90 12.68 416.09 12.68C416.28 12.68 416.65 12.64 417.27 12.64C417.90 12.64 418.46 12.68 418.78 12.68C418.95 12.68 418.95 12.61 418.95 12.40C418.95 12.24 418.95 12.18 418.78 12.18L417.58 12.18C417.54 12.18 417.52 11.54 417.52 10.79C417.52 9.46 417.54 7.48 417.54 5.99C417.54 5.25 417.54 4.84 417.55 4.28C417.55 4.02 417.62 4.14 417.75 4.28L424.63 12.66C424.72 12.75 424.80 12.89 424.91 12.89C425.03 12.89 425.10 12.77 425.10 12.54C425.10 12.39 425.26 6.65 425.28 4.48C425.28 4.06 425.31 3.70 425.33 3.70L425.96 3.70C426.19 3.70 426.24 3.68 426.24 3.49C426.24 3.25 426.24 3.19 426.05 3.19C425.85 3.19 425.42 3.23 424.86 3.23C424.24 3.23 423.44 3.19 423.35 3.19C423.18 3.19 423.18 3.26 423.18 3.47C423.18 3.64 423.18 3.70 423.35 3.70L424.65 3.70C424.66 3.70 424.66 4.33 424.66 4.44C424.66 5.85 424.69 8.33 424.69 9.70L424.69 10.29C424.69 10.57 424.68 10.65 424.45 10.37L418.77 3.39C418.66 3.25 418.63 3.19 418.46 3.19C418.38 3.19 418.00 3.23 417.69 3.23C417.40 3.23 416.32 3.19 416.12 3.19C415.95 3.19 415.93 3.26 415.93 3.47C415.93 3.64 415.95 3.70 416.12 3.70L417.03 3.70C417.03 4.17 416.99 8.53 416.92 10.79C416.89 11.69 416.91 12.18 416.79 12.18L416.15 12.18C415.93 12.18 415.88 12.19 415.88 12.39ZM434.35 7.91C434.35 11.40 436.72 12.89 439.31 12.89C441.20 12.89 443.20 11.89 443.20 11.58C443.20 11.12 443.21 10.68 443.21 10.33C443.21 9.81 443.23 9.56 443.35 9.56L443.79 9.56C443.93 9.56 443.94 9.39 443.94 9.30C443.94 9.18 443.93 9.06 443.79 9.06C443.56 9.06 443.20 9.10 442.53 9.10C442.08 9.10 441.34 9.07 440.65 9.06C440.51 9.06 440.51 9.24 440.51 9.35C440.51 9.45 440.54 9.56 440.66 9.56L441.88 9.56C441.92 9.56 441.98 9.87 441.98 10.33C441.98 10.82 441.97 11.41 441.94 11.65C441.92 11.76 441.28 12.39 439.70 12.39C437.46 12.39 435.86 10.29 435.86 7.94C435.86 5.42 437.42 3.54 439.42 3.54C441.31 3.54 442.48 4.87 442.48 5.03C442.48 5.15 442.43 6.12 442.43 6.17C442.43 6.31 442.47 6.36 442.74 6.36C442.93 6.36 443.00 6.33 443.00 6.15C443.00 5.43 443.04 3.75 443.04 3.56C443.04 3.36 442.95 3.33 442.74 3.33C442.51 3.33 442.48 3.39 442.48 3.56L442.48 3.91C442.48 3.99 442.44 4.02 442.32 3.92C442.04 3.72 441.04 3.08 439.47 3.08C436.63 3.08 434.35 4.79 434.35 7.91ZM451.98 12.07C451.98 12.31 452.42 12.75 452.84 12.75C453.03 12.75 453.47 12.35 453.47 11.90C453.47 11.51 452.90 11.20 452.63 11.20C452.37 11.20 451.98 11.76 451.98 12.07ZM462.07 12.07C462.07 12.31 462.52 12.75 462.94 12.75C463.12 12.75 463.57 12.35 463.57 11.90C463.57 11.51 462.99 11.20 462.73 11.20C462.46 11.20 462.07 11.76 462.07 12.07Z"></path></g></svg>